<svg width="67" height="41" viewBox="0 0 67 41" fill="none" xmlns="http://www.w3.org/2000/svg">
<path d="M60.3681 19.4404C58.7666 18.6869 57.5006 17.3571 56.8176 15.7107C56.1273 14.0756 55.0527 12.6353 53.687 11.5149C52.3213 10.3945 50.7057 9.62766 48.9804 9.28101C48.6129 9.21299 48.2624 9.07189 47.9493 8.86589C47.6362 8.65989 47.3667 8.39309 47.1564 8.08099L44.7031 4.33213H42.5396V4.96094C42.5405 5.16019 42.485 5.35557 42.3798 5.52408C42.2746 5.69259 42.1239 5.82723 41.9456 5.91219C41.7672 5.99714 41.5686 6.02886 41.373 6.00363C41.1774 5.9784 40.993 5.89726 40.8415 5.76975C31.1257 -2.65678 19.4411 -0.652752 12.485 4.26253C7.55392 7.66263 3.34806 12.0281 0.116434 17.1003C0.0409817 17.2193 0.00344333 17.3589 0.00887871 17.5001C0.0143141 17.6413 0.062462 17.7775 0.146833 17.8902C0.231203 18.0029 0.347741 18.0868 0.48074 18.1305C0.613739 18.1743 0.756806 18.1757 0.890658 18.1348L2.80484 17.5395C2.86208 17.5217 2.92296 17.5193 2.98138 17.5327C3.03979 17.5461 3.09371 17.5748 3.13772 17.6159C3.18172 17.6569 3.21428 17.709 3.23214 17.7668C3.24999 17.8246 3.25251 17.8861 3.23945 17.9451C1.62213 25.9325 3.47694 33.615 10.1267 40.2535H19.4886C19.2108 31.8054 32.3821 31.8054 32.1042 40.2535H41.4661C42.4088 39.3671 43.2778 38.4038 44.0643 37.3735C45.0879 36.0174 47.0638 35.9694 48.2513 37.1766C54.3809 43.4167 66.8374 39.5023 66.6854 29.3789C66.6896 27.2838 66.0959 25.232 64.9754 23.4692C63.8549 21.7065 62.2553 20.3077 60.3681 19.4404ZM47.9116 18.9292C47.5359 18.9292 47.1685 18.8166 46.8561 18.6056C46.5437 18.3946 46.3001 18.0947 46.1563 17.7439C46.0125 17.3931 45.9749 17.007 46.0482 16.6346C46.1215 16.2621 46.3025 15.92 46.5682 15.6515C46.8339 15.3829 47.1724 15.2001 47.541 15.126C47.9095 15.0519 48.2915 15.0899 48.6387 15.2353C48.9859 15.3806 49.2826 15.6267 49.4914 15.9424C49.7002 16.2582 49.8116 16.6294 49.8116 17.0091C49.8116 17.5184 49.6114 18.0067 49.2551 18.3668C48.8988 18.7269 48.4155 18.9292 47.9116 18.9292Z" fill="#00FFAA"/>
</svg>
