<svg width="152" height="130" viewBox="0 0 152 130" fill="none" xmlns="http://www.w3.org/2000/svg">
  <g clip-path="url(#clip0_7075:30048)">
    <g filter="url(#filter0_d_7075:30048)">
      <rect width="52" height="130" fill="#111827"/>
      <path
        d="M16.6378 9.71532L20.1537 11.6818C20.2349 11.7273 20.3025 11.7934 20.3495 11.8734C20.3966 11.9534 20.4214 12.0444 20.4214 12.1371C20.4214 12.2298 20.3966 12.3209 20.3495 12.4009C20.3025 12.4809 20.2349 12.547 20.1537 12.5924L16.6378 14.559C16.4134 14.6845 16.1603 14.7505 15.903 14.7505C15.6455 14.7505 15.3925 14.6845 15.1681 14.559L11.6522 12.5924C11.571 12.547 11.5034 12.4809 11.4563 12.4009C11.4093 12.3209 11.3845 12.2298 11.3845 12.1371C11.3845 12.0444 11.4093 11.9534 11.4563 11.8734C11.5034 11.7934 11.571 11.7273 11.6522 11.6818L15.1681 9.71532C15.3925 9.58981 15.6455 9.5239 15.903 9.5239C16.1603 9.5239 16.4134 9.58981 16.6378 9.71532Z"
        fill="white"/>
      <path opacity="0.7"
            d="M16.6188 11.5614L21.6542 14.3778C21.7354 14.4232 21.803 14.4893 21.85 14.5693C21.8971 14.6493 21.9219 14.7404 21.9219 14.8331C21.9219 14.9258 21.8971 15.0168 21.85 15.0968C21.803 15.1769 21.7354 15.2429 21.6542 15.2884L16.6188 18.1047C16.3945 18.2302 16.1414 18.2961 15.884 18.2961C15.6266 18.2961 15.3736 18.2302 15.1492 18.1047L10.1139 15.2884C10.0327 15.2429 9.96508 15.1769 9.91803 15.0968C9.87098 15.0168 9.84618 14.9258 9.84618 14.8331C9.84618 14.7404 9.87098 14.6493 9.91803 14.5693C9.96508 14.4893 10.0327 14.4232 10.1139 14.3778L15.1492 11.5614C15.3736 11.4359 15.6266 11.37 15.884 11.37C16.1414 11.37 16.3945 11.4359 16.6188 11.5614Z"
            fill="white"/>
      <path opacity="0.4"
            d="M16.7336 13.4072L23.7327 17.322C23.8138 17.3673 23.8813 17.4333 23.9283 17.5132C23.9752 17.5931 24 17.684 24 17.7765C24 17.8691 23.9752 17.96 23.9283 18.0399C23.8813 18.1197 23.8138 18.1858 23.7327 18.2311L16.7336 22.1458C16.5096 22.2711 16.257 22.3369 16 22.3369C15.743 22.3369 15.4904 22.2711 15.2664 22.1458L8.26725 18.2311C8.18619 18.1858 8.1187 18.1197 8.07173 18.0399C8.02476 17.96 8 17.8691 8 17.7765C8 17.684 8.02476 17.5931 8.07173 17.5132C8.1187 17.4333 8.18619 17.3673 8.26725 17.322L15.2664 13.4072C15.4904 13.2819 15.743 13.2161 16 13.2161C16.257 13.2161 16.5096 13.2819 16.7336 13.4072Z"
            fill="white"/>
      <rect x="8" y="36" width="36" height="6" rx="3" fill="#10B981"/>
      <rect x="8" y="54" width="36" height="6" rx="3" fill="#4B5563"/>
      <rect x="8" y="72" width="36" height="6" rx="3" fill="#4B5563"/>
      <rect x="8" y="90" width="36" height="6" rx="3" fill="#4B5563"/>
      <rect x="8" y="108" width="36" height="6" rx="3" fill="#4B5563"/>
    </g>
    <rect width="100" height="130" transform="translate(52)" fill="#F9FAFC"/>
    <g filter="url(#filter1_dd_7075:30048)">
      <rect width="100" height="22" transform="translate(52)" fill="white"/>
      <rect x="58" y="8" width="33" height="6" rx="3" fill="#CFD8DC"/>
      <rect x="122" y="7" width="8" height="8" rx="4" fill="#CFD8DC"/>
      <rect x="138" y="7" width="8" height="8" rx="4" fill="#CFD8DC"/>
    </g>
  </g>
  <defs>
    <filter id="filter0_d_7075:30048" x="-2" y="-1" width="56" height="134"
            filterUnits="userSpaceOnUse" color-interpolation-filters="sRGB">
      <feFlood flood-opacity="0" result="BackgroundImageFix"/>
      <feColorMatrix in="SourceAlpha" type="matrix"
                     values="0 0 0 0 0 0 0 0 0 0 0 0 0 0 0 0 0 0 127 0" result="hardAlpha"/>
      <feOffset dy="1"/>
      <feGaussianBlur stdDeviation="1"/>
      <feColorMatrix type="matrix" values="0 0 0 0 0 0 0 0 0 0 0 0 0 0 0 0 0 0 0.12 0"/>
      <feBlend mode="normal" in2="BackgroundImageFix" result="effect1_dropShadow_7075:30048"/>
      <feBlend mode="normal" in="SourceGraphic" in2="effect1_dropShadow_7075:30048" result="shape"/>
    </filter>
    <filter id="filter1_dd_7075:30048" x="50" y="-1" width="104" height="26"
            filterUnits="userSpaceOnUse" color-interpolation-filters="sRGB">
      <feFlood flood-opacity="0" result="BackgroundImageFix"/>
      <feColorMatrix in="SourceAlpha" type="matrix"
                     values="0 0 0 0 0 0 0 0 0 0 0 0 0 0 0 0 0 0 127 0" result="hardAlpha"/>
      <feOffset dy="1"/>
      <feGaussianBlur stdDeviation="1"/>
      <feColorMatrix type="matrix"
                     values="0 0 0 0 0.392157 0 0 0 0 0.454902 0 0 0 0 0.545098 0 0 0 0.1 0"/>
      <feBlend mode="normal" in2="BackgroundImageFix" result="effect1_dropShadow_7075:30048"/>
      <feColorMatrix in="SourceAlpha" type="matrix"
                     values="0 0 0 0 0 0 0 0 0 0 0 0 0 0 0 0 0 0 127 0" result="hardAlpha"/>
      <feOffset dy="1"/>
      <feGaussianBlur stdDeviation="0.5"/>
      <feComposite in2="hardAlpha" operator="out"/>
      <feColorMatrix type="matrix"
                     values="0 0 0 0 0.392157 0 0 0 0 0.454902 0 0 0 0 0.545098 0 0 0 0.06 0"/>
      <feBlend mode="normal" in2="effect1_dropShadow_7075:30048"
               result="effect2_dropShadow_7075:30048"/>
      <feBlend mode="normal" in="SourceGraphic" in2="effect2_dropShadow_7075:30048" result="shape"/>
    </filter>
    <clipPath id="clip0_7075:30048">
      <path d="M0 4C0 1.79086 1.79086 0 4 0H152V130H0V4Z" fill="white"/>
    </clipPath>
  </defs>
</svg>
