<svg width="223" height="50" viewBox="0 0 223 50" fill="none" xmlns="http://www.w3.org/2000/svg">
<path d="M103.61 15.377C100.321 15.377 98.1221 16.4859 96.1176 19.3011C96.0745 19.3616 96.0167 19.4101 95.9499 19.4418C95.8831 19.4736 95.8093 19.4876 95.7357 19.4825C95.662 19.4775 95.5908 19.4536 95.5288 19.413C95.4668 19.3724 95.4161 19.3166 95.3814 19.2507C93.7926 16.2771 91.1897 15.4274 88.7578 15.4274C86.8578 15.4274 84.3452 15.9747 82.8038 18.1899C82.6578 18.567 82.5395 18.9544 82.45 19.3491L82.3669 19.6515C82.352 19.7073 82.3192 19.7565 82.2736 19.7912C82.228 19.826 82.1722 19.8444 82.1151 19.8435C82.0938 19.8458 82.0723 19.8458 82.051 19.8435C81.9844 19.8244 81.9277 19.78 81.8927 19.7196C81.8578 19.6592 81.8473 19.5875 81.8634 19.5195L81.9465 19.2243V19.2051C82.2047 18.3426 82.2584 17.4308 82.1032 16.5435L82.0035 15.9723H75.9237V40.0374H82.868V27.1732C82.868 24.442 84.4093 21.8619 87.1594 21.8619C90.0093 21.8619 91.2609 23.9572 91.2609 27.1252V40.0374H98.1102V27.1252C98.1102 24.394 99.7465 22.006 102.497 22.006C105.294 22.006 106.116 24.0052 106.116 27.0292V40.0374H113.115V26.8804C113.115 17.9139 108.581 15.377 103.61 15.377Z" fill="white"/>
<path d="M136.37 15.9626L136.349 16.2027C136.27 17.232 136.385 18.2671 136.688 19.2531C136.729 19.3923 136.762 19.5219 136.786 19.6419C136.793 19.6758 136.794 19.7109 136.788 19.7452C136.783 19.7794 136.77 19.8122 136.751 19.8414C136.733 19.8707 136.709 19.8959 136.68 19.9157C136.652 19.9354 136.62 19.9492 136.586 19.9563C136.568 19.9589 136.55 19.9589 136.532 19.9563C136.473 19.956 136.416 19.9354 136.37 19.8979C136.324 19.8603 136.292 19.8081 136.28 19.7499C136.107 18.9545 135.738 18.2158 135.209 17.6019C135.154 17.5371 135.097 17.4747 135.04 17.4147V17.4003C133.58 16.1066 131.399 15.413 129.103 15.413C122.059 15.3146 116.611 19.9947 116.611 27.9868C116.611 35.931 121.774 40.6086 128.908 40.5606C130.948 40.5174 133.846 39.7566 135.594 37.8486C135.961 37.3604 136.234 36.8067 136.399 36.2166C136.418 36.15 136.462 36.0938 136.522 36.0601C136.582 36.0265 136.653 36.018 136.719 36.0366C136.785 36.0562 136.841 36.1009 136.875 36.1613C136.909 36.2217 136.919 36.2932 136.902 36.3606L136.874 36.4662C136.556 37.6246 136.469 38.8353 136.62 40.0278H142.889V15.9626H136.37ZM129.811 34.3373C126.338 34.3373 123.541 31.9997 123.541 28.0012C123.541 24.0028 126.338 21.6147 129.811 21.6147C133.957 21.6147 136.128 24.7828 136.128 28.246C136.128 31.2677 133.715 34.3373 129.811 34.3373Z" fill="white"/>
<path d="M161.224 15.4274C159.029 15.4274 157.186 15.8331 155.723 17.4795C155.217 18.0522 154.886 18.7621 154.773 19.5219C154.763 19.5918 154.756 19.6624 154.754 19.7331C154.758 19.7697 154.754 19.8067 154.742 19.8416C154.731 19.8765 154.712 19.9086 154.688 19.9358C154.663 19.963 154.633 19.9848 154.6 19.9997C154.567 20.0146 154.531 20.0223 154.494 20.0223C154.458 20.0223 154.422 20.0146 154.389 19.9997C154.355 19.9848 154.325 19.963 154.301 19.9358C154.277 19.9086 154.258 19.8765 154.246 19.8416C154.235 19.8067 154.231 19.7697 154.234 19.7331C154.24 19.5448 154.264 19.3575 154.306 19.1739C154.523 18.1784 154.536 17.1482 154.344 16.1475L154.317 16.0107H147.862V40.0375H154.807V27.514C154.807 23.914 157.367 21.958 160.354 21.958C161.719 21.9361 163.053 22.3641 164.154 23.1772L167.047 17.6211C165.373 16.1067 163.489 15.4274 161.224 15.4274Z" fill="white"/>
<path d="M187.022 16.0107L186.949 16.5435C186.811 17.5768 186.861 18.627 187.098 19.6419V19.6419C187.106 19.6758 187.106 19.7108 187.1 19.7449C187.094 19.7791 187.082 19.8117 187.063 19.8409C187.045 19.8701 187.021 19.8953 186.992 19.9151C186.964 19.9349 186.932 19.9489 186.899 19.9563C186.881 19.9587 186.862 19.9587 186.844 19.9563C186.785 19.956 186.728 19.9354 186.682 19.8979C186.637 19.8603 186.605 19.8081 186.592 19.7499C186.442 19.065 186.092 18.4414 185.588 17.9595C183.576 16.0395 181.237 15.5594 178.679 15.5594C171.685 15.5594 166.909 20.5299 166.909 28.0396C166.909 35.8398 171.783 40.5654 178.784 40.5654C181.026 40.5654 183.619 39.8622 185.59 37.9014C186.068 37.4277 186.382 36.8107 186.486 36.1422V36.1422C186.49 36.1077 186.502 36.0746 186.519 36.0447C186.537 36.0148 186.56 35.9888 186.588 35.9682C186.615 35.9476 186.647 35.9328 186.68 35.9248C186.714 35.9168 186.749 35.9156 186.782 35.9214C186.816 35.9264 186.849 35.938 186.878 35.9557C186.907 35.9734 186.933 35.9967 186.953 36.0243C186.973 36.052 186.988 36.0834 186.996 36.1168C187.004 36.1502 187.006 36.1849 187.001 36.219C186.98 36.3558 186.951 36.5022 186.915 36.6606C186.457 38.6915 186.237 40.7698 186.26 42.8527V47.6144L193.252 50V16.0107H187.022ZM179.805 34.2389C176.594 34.2677 174.015 31.5701 173.908 28.3276C173.789 24.7276 175.924 21.8619 179.741 21.8619C182.876 21.8619 186.153 23.4676 186.153 28.0493C186.144 32.0693 182.957 34.2101 179.795 34.2389H179.805Z" fill="white"/>
<path d="M209.928 15.4274C202.022 15.4274 196.907 20.7891 196.907 28.0493C196.907 35.3094 201.875 40.5751 209.928 40.5751C218.034 40.5751 222.991 35.3118 222.991 28.0493C222.991 20.7867 217.896 15.4274 209.928 15.4274ZM209.928 34.3374C205.732 34.3374 203.948 31.0709 203.948 28.0493C203.948 25.0276 205.779 21.7131 209.928 21.7131C214.123 21.7131 215.958 25.03 215.958 28.0493C215.958 31.2173 214.17 34.3374 209.928 34.3374Z" fill="white"/>
<path d="M60.3681 19.4403C58.7666 18.6868 57.5006 17.357 56.8176 15.7106C56.1273 14.0755 55.0527 12.6352 53.687 11.5148C52.3213 10.3943 50.7057 9.62753 48.9804 9.28089C48.6129 9.21287 48.2624 9.07176 47.9493 8.86576C47.6362 8.65976 47.3667 8.39297 47.1564 8.08087L44.7031 4.33201H42.5396V4.96082C42.5405 5.16007 42.485 5.35544 42.3798 5.52396C42.2746 5.69247 42.1239 5.82711 41.9456 5.91206C41.7672 5.99702 41.5686 6.02874 41.373 6.00351C41.1774 5.97828 40.993 5.89714 40.8415 5.76963C31.1257 -2.65691 19.4411 -0.652874 12.485 4.2624C7.55392 7.66251 3.34806 12.0279 0.116434 17.1002C0.0409817 17.2192 0.00344333 17.3587 0.00887871 17.5C0.0143141 17.6412 0.062462 17.7774 0.146833 17.8901C0.231203 18.0028 0.347741 18.0867 0.48074 18.1304C0.613739 18.1741 0.756806 18.1756 0.890658 18.1346L2.80484 17.5394C2.86208 17.5216 2.92296 17.5192 2.98138 17.5326C3.03979 17.546 3.09371 17.5747 3.13772 17.6158C3.18172 17.6568 3.21428 17.7089 3.23214 17.7666C3.24999 17.8244 3.25251 17.8859 3.23945 17.945C1.62213 25.9324 3.47694 33.6149 10.1267 40.2534H19.4886C19.2108 31.8052 32.3821 31.8052 32.1042 40.2534H41.4661C42.4088 39.3669 43.2778 38.4037 44.0643 37.3733C45.0879 36.0173 47.0638 35.9693 48.2513 37.1765C54.3809 43.4166 66.8374 39.5022 66.6854 29.3788C66.6896 27.2837 66.0959 25.2319 64.9754 23.4691C63.8549 21.7064 62.2553 20.3075 60.3681 19.4403V19.4403ZM47.9116 18.929C47.5359 18.929 47.1685 18.8164 46.8561 18.6055C46.5437 18.3945 46.3001 18.0946 46.1563 17.7438C46.0125 17.3929 45.9749 17.0069 46.0482 16.6344C46.1215 16.262 46.3025 15.9199 46.5682 15.6513C46.8339 15.3828 47.1724 15.2 47.541 15.1259C47.9095 15.0518 48.2915 15.0898 48.6387 15.2351C48.9859 15.3805 49.2826 15.6265 49.4914 15.9423C49.7002 16.258 49.8116 16.6293 49.8116 17.009C49.8116 17.5182 49.6114 18.0066 49.2551 18.3667C48.8988 18.7268 48.4155 18.929 47.9116 18.929Z" fill="#00FFAA"/>
</svg>
